<svg xmlns="http://www.w3.org/2000/svg" shape-rendering="geometricPrecision" text-rendering="geometricPrecision" image-rendering="optimizeQuality" fill-rule="evenodd" clip-rule="evenodd" viewBox="0 0 503.055 447.058"><path fill-rule="nonzero" d="M292.705 286.342l7.409-7.41-21.935-21.915a6.164 6.164 0 01-1.33-7.309c9.771-19.344 16.264-37.222 19.726-53.738 3.421-16.303 3.894-31.279 1.673-45.03-4.132-25.552-15.627-45.791-31.641-60.726-14.32-13.354-32.306-22.534-51.923-27.551-19.793-5.062-41.202-5.891-62.173-2.501-31.614 5.11-62.233 19.789-84.847 43.974a6.172 6.172 0 01-6.876 1.675 6.163 6.163 0 01-3.497-7.981c10.622-27.069 29.247-49.312 52.258-65.711l.35-.268c24.476-17.342 53.911-28.086 83.93-31 15.167-1.47 29.721-1.008 43.437 1.18 32.334 5.159 60.063 19.878 80.508 41.445 20.463 21.581 33.612 49.996 36.769 82.507 1.313 13.536.891 27.782-1.461 42.529-1.885 11.82-5.013 23.816-9.425 35.806l-.168.525c-3.829 10.322-8.654 20.683-14.493 30.969l7.092 7.146 6.25-6.25c3.456-3.455 9.125-3.455 12.581 0l135.292 135.29.436.474c8.269 8.506 12.408 19.579 12.408 30.633 0 11.267-4.284 22.547-12.844 31.107-8.562 8.562-19.84 12.846-31.107 12.846-11.269 0-22.544-4.284-31.104-12.844L292.705 298.922c-3.456-3.455-3.456-9.125 0-12.58z"/><path fill="#7D8F9B" d="M331.735 247.312l-10.434-10.513c13.609-22.836 22.052-46.365 25.704-69.25C362.424 70.918 291.984-2.499 194.408 6.975 138.185 12.432 84.119 46.339 63.03 100.072c72.398-77.628 223.277-61.547 241.296 49.904 4.684 28.977-1.948 62.848-21.978 102.506l22.12 22.097 27.267-27.267z"/><path fill="#B1BCC2" d="M313.394 265.652l-7.447-7.505c13.609-22.836 22.052-46.365 25.704-69.251C347.07 92.265 276.63 18.848 179.054 28.323c-40.79 3.959-80.442 22.896-107.191 53.511a132.211 132.211 0 00-8.833 18.238c72.398-77.628 223.277-61.547 241.296 49.904 4.684 28.977-1.948 62.848-21.978 102.506l22.12 22.097 8.926-8.927z"/><path fill="#F6C343" d="M298.29 291.927l49.634-49.634a1 1 0 011.409 0l27.558 27.559a8.07 8.07 0 00-.786.69l-50.303 50.306-27.512-27.512a1 1 0 010-1.409zm89.676-11l96.66 96.656c14.036 14.039 14.036 37.005 0 51.044-14.038 14.038-37.008 14.038-51.043 0l-96.611-96.608 50.304-50.306c.25-.25.481-.513.69-.786z"/><path fill="#F09418" d="M52.385 155.735C43.875 135.708 27.613 129.879 0 145.208c7.02 10.43 28.787 33.889 52.385 10.527zm200.532 46.288a5.532 5.532 0 01-4.354-6.503c.597-3.011 3.523-4.938 6.51-4.345l18.744 3.683a5.53 5.53 0 014.347 6.504 5.525 5.525 0 01-6.503 4.344l-18.744-3.683z"/><path fill="#F6C343" d="M115.193 163.434c5.547-19.744 3.093-29.975-27.165-40.86 1.256 19.383-1.724 38.839 27.165 40.86zm-34.177-6.762c5.163-18.403 2.891-27.919-25.304-38.039 1.141 18.031-1.602 36.146 25.304 38.039zm157.974 42.907c-3.092 25.812-10.906 36.602-51.591 34.658 10.827-22.089 16.789-46.298 51.591-34.658zm-44.198-8.782c-3.092 25.811-10.905 36.601-51.591 34.657 10.855-22.084 16.817-46.292 51.591-34.657zm-43.278-8.659c-2.732 22.96-9.689 32.561-45.87 30.833 9.631-19.64 14.915-41.178 45.87-30.833zm-38.506-7.712c-2.423 20.365-8.603 28.88-40.723 27.369 8.572-17.43 13.256-36.547 40.723-27.369zm-34.165-6.819c-2.266 18.979-8.004 26.904-37.926 25.475 7.949-16.225 12.346-34.042 37.926-25.475zm162.382 20.725c7.012-25.033 3.917-37.991-34.419-51.75 1.558 24.551-2.194 49.227 34.419 51.75zm-44.198-8.784c7.012-25.033 3.918-37.99-34.419-51.75 1.586 24.557-2.166 49.234 34.419 51.75zm-43.306-8.517c6.254-22.26 3.497-33.792-30.596-46.029 1.39 21.83-1.962 43.752 30.596 46.029z"/></svg>