<svg xmlns="http://www.w3.org/2000/svg" version="1.1" xmlns:xlink="http://www.w3.org/1999/xlink" xmlns:svgjs="http://svgjs.dev/svgjs" width="1000" height="179" viewBox="0 0 1000 179"><g transform="matrix(1,0,0,1,-0.6060554216972491,-0.628819185739701)"><svg viewBox="0 0 396 71" data-background-color="#ccd5ae" preserveAspectRatio="xMidYMid meet" height="179" width="1000" xmlns="http://www.w3.org/2000/svg" xmlns:xlink="http://www.w3.org/1999/xlink"><g id="tight-bounds" transform="matrix(1,0,0,1,0.23999794699210497,0.24941990048893103)"><svg viewBox="0 0 395.52 70.50116019902215" height="70.50116019902215" width="395.52"><g><svg viewBox="0 0 659.0716073908229 117.47904777327933" height="70.50116019902215" width="395.52"><g><rect width="10.541673399573765" height="117.47904777327933" x="225.41393032744344" y="0" fill="#d4a373" opacity="1" stroke-width="0" stroke="transparent" fill-opacity="1" class="rect-o-0" data-fill-palette-color="primary" rx="1%" id="o-0" data-palette-color="#d4a373"></rect></g><g transform="matrix(1,0,0,1,263.5516073908229,0.2922364372469559)"><svg viewBox="0 0 395.52 116.89457489878542" height="116.89457489878542" width="395.52"><g id="textblocktransform"><svg viewBox="0 0 395.52 116.89457489878542" height="116.89457489878542" width="395.52" id="textblock"><g><svg viewBox="0 0 395.52 116.89457489878542" height="116.89457489878542" width="395.52"><g transform="matrix(1,0,0,1,0,0)"><svg width="395.52" viewBox="1.75 -35.75 123.48999786376953 36.5" height="116.89457489878542" data-palette-color="#d4a373"><path d="M14.75 0.75Q11.2 0.75 8.1-0.85L8.1-0.85Q6.7-1.55 5.75-2.5L5.75-2.5Q5.05-1.35 4-0.45L4-0.45Q3.1 0.2 3 0.25L3 0.25 1.75 0.25 1.75-9.25 3.75-9.25Q4.5-6.8 5.85-4.85L5.85-4.85Q8.9-0.5 13.75-0.5L13.75-0.5Q16.6-0.5 18.3-2.2 20-3.9 20-6.75L20-6.75Q20-8.4 19.03-9.7 18.05-11 16.6-12 15.15-13 12.55-14.5L12.55-14.5Q9.25-16.35 7.2-17.85 5.15-19.35 3.7-21.63 2.25-23.9 2.25-27L2.25-27Q2.25-29.45 3.63-31.43 5-33.4 7.75-34.58 10.5-35.75 14.5-35.75L14.5-35.75Q17.4-35.75 20.3-34.1L20.3-34.1Q21.4-33.5 22.5-32.5L22.5-32.5Q23.35-33.8 24.25-34.55L24.25-34.55Q25.15-35.2 25.25-35.25L25.25-35.25 26.5-35.25 26.5-25.75 24.5-25.75Q23.85-28.15 22.55-30.1L22.55-30.1Q21.35-32 19.58-33.25 17.8-34.5 15.5-34.5L15.5-34.5Q13.55-34.5 12.15-32.95 10.75-31.4 10.75-29L10.75-29Q10.75-27.15 11.83-25.68 12.9-24.2 14.48-23.1 16.05-22 18.75-20.45L18.75-20.45Q21.9-18.65 23.85-17.25 25.8-15.85 27.15-13.78 28.5-11.7 28.5-9L28.5-9Q28.5-6.3 26.95-4.08 25.4-1.85 22.3-0.55 19.2 0.75 14.75 0.75L14.75 0.75ZM38.5 0L38.5-0.75 41.5-1.5 41.5-33.75 35.75-33.75Q35.75-30.7 34.1-27.9L34.1-27.9Q33.4-26.75 32.5-26L32.5-26 31-26 31-35 60.25-35 60.25-26 58.75-26Q57.8-26.75 57.1-27.9L57.1-27.9Q55.5-30.6 55.5-33.75L55.5-33.75 49.75-33.75 49.75-1.5 52.75-0.75 52.75 0 38.5 0ZM76.25 0.75Q72.7 0.75 69.59-0.85L69.59-0.85Q68.2-1.55 67.25-2.5L67.25-2.5Q66.55-1.35 65.5-0.45L65.5-0.45Q64.59 0.2 64.5 0.25L64.5 0.25 63.25 0.25 63.25-9.25 65.25-9.25Q66-6.8 67.34-4.85L67.34-4.85Q70.4-0.5 75.25-0.5L75.25-0.5Q78.09-0.5 79.8-2.2 81.5-3.9 81.5-6.75L81.5-6.75Q81.5-8.4 80.52-9.7 79.55-11 78.09-12 76.65-13 74.05-14.5L74.05-14.5Q70.75-16.35 68.7-17.85 66.65-19.35 65.2-21.63 63.75-23.9 63.75-27L63.75-27Q63.75-29.45 65.12-31.43 66.5-33.4 69.25-34.58 72-35.75 76-35.75L76-35.75Q78.9-35.75 81.8-34.1L81.8-34.1Q82.9-33.5 84-32.5L84-32.5Q84.84-33.8 85.75-34.55L85.75-34.55Q86.65-35.2 86.75-35.25L86.75-35.25 88-35.25 88-25.75 86-25.75Q85.34-28.15 84.05-30.1L84.05-30.1Q82.84-32 81.07-33.25 79.3-34.5 77-34.5L77-34.5Q75.05-34.5 73.65-32.95 72.25-31.4 72.25-29L72.25-29Q72.25-27.15 73.32-25.68 74.4-24.2 75.97-23.1 77.55-22 80.25-20.45L80.25-20.45Q83.4-18.65 85.34-17.25 87.3-15.85 88.65-13.78 90-11.7 90-9L90-9Q90-6.3 88.45-4.08 86.9-1.85 83.8-0.55 80.7 0.75 76.25 0.75L76.25 0.75ZM89.24 0L89.24-0.75 93.24-2.25 106.99-35.5 108.49-35.5 122.74-1.5 125.24-0.75 125.24 0 119.24 0Q116.64 0 114.99-1.18 113.34-2.35 112.54-4.25L112.54-4.25 109.99-10.25 98.04-10.25 94.74-2.25 98.49-0.75 98.49 0 89.24 0ZM103.99-24.65L98.54-11.5 109.49-11.5 103.99-24.65Z" opacity="1" transform="matrix(1,0,0,1,0,0)" fill="#d4a373" class="undefined-text-0" data-fill-palette-color="primary" id="text-0"></path></svg></g></svg></g></svg></g></svg></g><g transform="matrix(1,0,0,1,0,0.2922364372469559)"><svg viewBox="0 0 197.81792666363776 116.89457489878542" height="116.89457489878542" width="197.81792666363776"><g><svg xmlns="http://www.w3.org/2000/svg" xmlns:xlink="http://www.w3.org/1999/xlink" version="1.1" baseProfile="basic" x="0" y="0" viewBox="0 21 100 59.092002868652344" xml:space="preserve" height="116.89457489878542" width="197.81792666363776" class="icon-icon-0" data-fill-palette-color="accent" id="icon-0"><g fill="#d4a373" data-fill-palette-color="accent"><polygon points="85.186,54.24 85.186,35.773 85.186,21 70.298,21 40.741,21 55.557,35.773 70.37,35.773 70.37,54.24 55.557,54.24    77.778,80.092 100,54.24  " fill="#d4a373" data-fill-palette-color="accent"></polygon><polygon points="29.629,65.319 29.629,46.853 44.445,46.853 22.222,21 0,46.853 14.815,46.853 14.815,65.319 14.815,80.092    29.703,80.092 59.259,80.092 44.445,65.319  " fill="#d4a373" data-fill-palette-color="accent"></polygon></g></svg></g></svg></g></svg></g><defs></defs></svg><rect width="395.52" height="70.50116019902215" fill="none" stroke="none" visibility="hidden"></rect></g></svg></g></svg>